HIERARCHY
ROOT Spine
{
    OFFSET 0.0 0.0 -0.0
    CHANNELS 6 Xposition Yposition Zposition Zrotation Xrotation Yrotation
    JOINT ShoulderCenter
    {
        OFFSET 0.0 31.67816925048828 0.0
        CHANNELS 3 Zrotation Xrotation Yrotation
        JOINT LeftShoulder
        {
            OFFSET 12.424925804138184 0.0 0.0
            CHANNELS 3 Zrotation Xrotation Yrotation
            JOINT LeftElbow
            {
                OFFSET 28.573474884033203 0.0 0.0
                CHANNELS 3 Zrotation Xrotation Yrotation
                JOINT LeftHand
                {
                    OFFSET 31.071807861328125 0.0 0.0
                    CHANNELS 3 Zrotation Xrotation Yrotation
                    End Site
                    {
                        OFFSET 12.428722381591797 0.0 0.0
                    }
                }
            }
        }
        JOINT RightShoulder
        {
            OFFSET -12.424925804138184 0.0 0.0
            CHANNELS 3 Zrotation Xrotation Yrotation
            JOINT RightElbow
            {
                OFFSET -28.573474884033203 0.0 0.0
                CHANNELS 3 Zrotation Xrotation Yrotation
                JOINT RightHand
                {
                    OFFSET -31.071807861328125 0.0 0.0
                    CHANNELS 3 Zrotation Xrotation Yrotation
                    End Site
                    {
                        OFFSET -12.428722381591797 0.0 0.0
                    }
                }
            }
        }
        End Site
        {
            OFFSET 0.0 12.671268463134766 0.0
        }
    }
    JOINT LeftHip
    {
        OFFSET 15.579123319990602 -15.579123319990602 0.0
        CHANNELS 3 Zrotation Xrotation Yrotation
        JOINT LeftKnee
        {
            OFFSET 0.0 -34.820343017578125 0.0
            CHANNELS 3 Zrotation Xrotation Yrotation
            JOINT LeftFoot
            {
                OFFSET 0.0 -38.45089340209961 0.0
                CHANNELS 3 Zrotation Xrotation Yrotation
                End Site
                {
                    OFFSET 0.0 0.0 15.380359649658203
                }
            }
        }
    }
    JOINT RightHip
    {
        OFFSET -15.579123319990602 -15.579123319990602 0.0
        CHANNELS 3 Zrotation Xrotation Yrotation
        JOINT RightKnee
        {
            OFFSET 0.0 -34.820343017578125 0.0
            CHANNELS 3 Zrotation Xrotation Yrotation
            JOINT RightFoot
            {
                OFFSET 0.0 -38.45089340209961 0.0
                CHANNELS 3 Zrotation Xrotation Yrotation
                End Site
                {
                    OFFSET 0.0 0.0 15.380359649658203
                }
            }
        }
    }
}
MOTION
Frames: 5
Frame Time: 0.03333333333333333
111.19999694824219 -5.299999713897705 6.199999809265137 7.462706255244483 2.1769894344193315 -100.1238577007502 9.155189621084169e-07 -4.725039877933661e-07 -1.1167754431797283 91.64629409537628 24.93075267000316 -176.78070329540375 4.994249621603988e-07 2.659115411699284e-06 26.015071114926194 -3.1805546814635164e-15 -6.3611093629270335e-15 6.3611093629270335e-15 -95.60409387976202 -7.977528868299473 -179.23922831189108 1.4031114683298586e-06 -2.0626542077134175e-06 -32.60700071476701 3.1805546814635164e-15 6.3611093629270335e-15 6.3611093629270335e-15 -2.735635016616712 -19.085107970093517 -26.509070172005924 3.293433317738139 28.95167203249713 -44.135950084788306 3.975693351829396e-16 -1.5902773407317584e-15 5.517382872562698e-33 10.64271851048769 -20.21601451674469 23.35809645518893 -7.1106024829894965 25.44976563379286 40.85016728640416 0.0 0.0 -6.162324695335562e-15
111.19999694824219 -5.400000095367432 6.300000190734863 7.4392062613096765 2.3508311404109112 -100.02724846224599 3.0553369584475495e-08 -3.4568792392402237e-07 -1.004095742513337 91.83392664863979 24.723441477802027 -177.67592144152033 -3.032034625885927e-06 3.6347422968406982e-06 26.855630981745605 0.0 0.0 -6.361109362927033e-15 -95.63462640066007 -8.146514524564445 -178.80794648609836 -6.805292842499651e-06 -4.344390236691587e-07 -32.74374743668777 3.1805546814635168e-15 -3.1805546814635168e-15 6.3611093629270335e-15 -2.6007358700463863 -19.027178935589546 -26.440020384219387 2.987485352601699 28.90018850492912 -43.309396686729194 -5.963540027744094e-16 3.103527865816518e-33 -5.963540027744094e-16 10.826521835816724 -20.375507438721687 22.966012664405426 -7.000783917214879 25.7311157323566 41.04045263284567 4.965644585306429e-32 1.5902773407317588e-15 -3.578124016646457e-15
111.19999694824219 -5.299999713897705 6.300000190734863 7.642579920585495 2.538322537607587 -100.08729634022757 -2.918322955793519e-07 8.407312433480779e-08 -0.6857560821261259 91.94553665327945 24.071174395690594 -177.27791790229574 2.9268690670020803e-06 -2.816434197196856e-06 26.785844420696456 -3.180554681463516e-15 0.0 0.0 -95.27239131745755 -7.609605441590178 -178.68428184504265 -3.874766495053489e-07 1.6074368958460546e-06 -32.98490782206192 3.1805546814635164e-15 6.3611093629270335e-15 6.3611093629270335e-15 -2.3653693368480266 -19.19657274005715 -26.273644686764005 3.0534788314273325 28.893880281001646 -43.5378965494107 -1.5902773407317582e-15 1.1034765745125397e-32 -7.951386703658791e-16 11.077281318654393 -20.53002387755019 23.017826591128326 -7.12192284983197 25.510734940560987 41.4019763120011 0.0 0.0 -1.789062008323228e-15
111.09999084472656 -5.299999713897705 6.400000095367432 7.439179133167197 2.5314378996026097 -99.76291988010101 -2.450049712453593e-07 -2.4640519541444336e-07 -0.5219659427450085 92.00454617688244 23.033549918337382 -177.47002292191735 1.6062230310636253e-06 -7.376559681054867e-08 27.12811153020684 3.1805546814635168e-15 -1.7655625192200634e-31 -6.3611093629270335e-15 -95.28056793389008 -7.52818560293963 -178.24267760885743 2.0603074192750247e-06 1.3377836006670894e-06 -32.76907453482447 -3.1805546814635164e-15 1.7655625192200634e-31 -6.361109362927033e-15 -2.467337038465944 -19.109120354510992 -25.717972942318823 3.38823357135398 28.72729167757324 -44.02062117820321 -1.9878466759146984e-15 3.4483642953516864e-33 -1.9878466759146985e-16 10.884115179132097 -20.356860447314737 22.382294244164004 -7.209428291069921 25.586556470852972 41.44050069003785 0.0 0.0 2.286023677301902e-15
111.09999084472656 -5.299999713897705 6.400000095367432 7.439178058499824 2.5314380758774133 -99.80260351434526 -4.2378171557968757e-07 4.944695008015377e-07 -0.7591982015849751 92.03477859725146 22.76371344500603 -177.4907754007815 -9.131031114801614e-07 6.8149551500064376e-06 27.48891383441351 0.0 0.0 -6.361109362927035e-15 -95.27697809092908 -7.843160471346512 -178.4647231387477 -3.4121519727298514e-06 2.386512095204332e-06 -32.499766034597 -3.1805546814635168e-15 0.0 0.0 -2.4722957395905443 -19.14524862254032 -25.492280538805627 3.2455290139025856 28.801449703833576 -44.06177316827388 -1.9878466759146977e-16 3.4483642953516864e-34 -1.9878466759146977e-16 10.920284330514278 -20.387318326617553 22.366136526436218 -7.274388556040789 25.470349712549602 41.39602062228253 7.951386703658791e-16 -1.5902773407317582e-15 -1.4908850069360234e-15
